<?xml version="1.0" encoding="UTF-8"?>
<svg version="1.1" xmlns="http://www.w3.org/2000/svg" width="512" height="512">
<path d="M0 0 C1.84988189 0.62310259 3.7004724 1.2441044 5.55167198 1.86328125 C9.77575201 3.27867962 13.99610449 4.7046131 18.21471405 6.13623047 C26.07250658 8.79671739 33.94800516 11.40250132 41.82550049 14.00390625 C44.81173065 14.99046068 47.79791724 15.97714698 50.78409767 16.96385193 C51.5455307 17.2154191 52.30696373 17.46698626 53.09147049 17.72617668 C62.02986235 20.68004441 70.96414386 23.64627931 79.89810181 26.61352539 C81.16377722 27.03387249 81.16377722 27.03387249 82.45502184 27.46271145 C107.09665733 35.64691563 131.73556502 43.83933865 156.37273598 52.03697205 C160.2017661 53.3109806 164.03080855 54.58495211 167.85986328 55.85888672 C169.28674379 56.33361591 169.28674379 56.33361591 170.74245016 56.81793559 C186.25379956 61.97829826 201.7685945 67.12822492 217.28469904 72.27426982 C233.30285887 77.58705023 249.31759944 82.91003641 265.32913053 88.24276161 C274.28530998 91.2253595 283.24295435 94.20338234 292.20454788 97.16967773 C299.80505335 99.68545514 307.40245861 102.21032702 314.99595572 104.74718374 C318.86339694 106.03891045 322.73215224 107.32625109 326.60497475 108.60176277 C330.15310192 109.77044596 333.6967997 110.95166511 337.23747127 112.14273834 C339.11565369 112.77099374 340.99825347 113.38599628 342.88100874 114.00041199 C354.63539154 117.9827844 363.65904377 123.39945203 369.49853516 134.68359375 C372.63561519 142.63572686 372.7183006 151.87259791 369.77587891 159.875 C365.3165916 169.42840372 359.49289934 175.39802766 349.5434494 179.28886795 C344.16956945 181.19137263 338.70062392 182.78942288 333.23681641 184.41015625 C331.3957945 184.96715031 329.55509498 185.52521085 327.71469116 186.08424377 C321.61611237 187.93068542 315.50879368 189.74722874 309.40087891 191.5625 C307.21809075 192.21295036 305.03535215 192.86356703 302.85266113 193.51434326 C291.32510197 196.9495271 279.79335877 200.37059602 268.26025391 203.78710938 C267.09340183 204.13283178 265.92654976 204.47855419 264.72433853 204.83475304 C258.72246765 206.61218067 252.71939185 208.38539456 246.71435547 210.15209961 C240.76916148 211.90159386 234.827302 213.66202863 228.88746262 215.42961311 C226.66013682 216.09022698 224.43162785 216.74686687 222.20186234 217.39919853 C202.24579593 222.81050588 202.24579593 222.81050588 185.02587891 233.8125 C184.27564453 234.47765625 183.52541016 235.1428125 182.75244141 235.828125 C174.90823308 244.94929747 171.91051529 255.417423 168.56103516 266.71484375 C168.00449894 268.55525224 167.44685409 270.39532579 166.88819885 272.23509216 C165.36397472 277.26969491 163.85819886 282.30963302 162.35746002 287.35128021 C161.38601221 290.61240714 160.4109277 293.87242607 159.43475342 297.13214111 C153.8138479 315.90443383 148.22667798 334.6867813 142.66040039 353.4753418 C140.89343893 359.43862235 139.12059551 365.40012759 137.34401131 371.36054802 C136.67798424 373.59926214 136.01417179 375.83863647 135.35272026 378.07870674 C134.43608359 381.1824864 133.5119693 384.28394938 132.58618164 387.38500977 C132.3217627 388.28719742 132.05734375 389.18938507 131.78491211 390.11891174 C128.05807367 402.52386647 123.67798051 412.9031601 111.91259766 419.375 C103.07868851 423.55152936 94.06575793 423.67979263 84.88134766 420.58984375 C75.13911656 416.55487244 69.14237137 409.8941154 64.96461415 400.24537396 C63.53583355 396.35147579 62.21816974 392.43540877 60.93423462 388.49209595 C60.42708475 386.97616864 59.91848426 385.46072602 59.4085716 383.9457258 C58.02049786 379.80789186 56.65295378 375.66352775 55.28883386 371.51774573 C53.81079574 367.03800507 52.31358517 362.56467454 50.8187561 358.09051514 C47.89754251 349.33722753 44.99375229 340.57825535 42.09561546 331.81730397 C38.72001116 321.61563319 35.32593728 311.42013873 31.93080561 301.22495346 C25.87539534 283.03954402 19.83494392 264.84920255 13.80371094 246.65576172 C7.94958889 228.99667688 2.08768981 211.3402036 -3.78417969 193.68701172 C-4.14618868 192.59866018 -4.50819767 191.51030865 -4.88117664 190.38897677 C-6.33627218 186.01444244 -7.79141555 181.63992403 -9.24662402 177.26542727 C-20.38805292 143.77278724 -31.52242352 110.27778379 -42.63309097 76.77492523 C-43.79952697 73.25778366 -44.96662414 69.74086262 -46.13432312 66.22414017 C-47.47636343 62.18221196 -48.81699552 58.1398196 -50.15646155 54.0970376 C-50.64230229 52.63142763 -51.12863587 51.16598093 -51.61550073 49.70071085 C-52.27513713 47.71516266 -52.93295981 45.72902278 -53.59030724 43.74271584 C-53.95674005 42.63783432 -54.32317286 41.5329528 -54.7007097 40.39459002 C-57.69147605 30.96670476 -57.83055125 21.36411219 -53.98193359 12.1328125 C-49.52122294 3.84143508 -43.33073041 -1.11117264 -34.59912109 -4.4375 C-22.57082543 -7.99501927 -11.31602867 -3.91580311 0 0 Z " fill="#000000" transform="translate(98.59912109375,47.4375)"/>
</svg>
